<?xml version="1.0" encoding="UTF-8" standalone="no"?>
<!-- Created with Inkscape (http://www.inkscape.org/) -->

<svg
   xmlns:dc="http://purl.org/dc/elements/1.1/"
   xmlns:cc="http://creativecommons.org/ns#"
   xmlns:rdf="http://www.w3.org/1999/02/22-rdf-syntax-ns#"
   xmlns:svg="http://www.w3.org/2000/svg"
   xmlns="http://www.w3.org/2000/svg"
   xmlns:sodipodi="http://sodipodi.sourceforge.net/DTD/sodipodi-0.dtd"
   xmlns:inkscape="http://www.inkscape.org/namespaces/inkscape"
   width="1052.3622"
   height="744.09448"
   id="svg2"
   version="1.1"
   inkscape:version="0.48.3.1 r9886"
   sodipodi:docname="logo color.svg"
   inkscape:export-filename="C:\Users\Né\Desktop\UCR\UCR segundo se\Diseño\animales estilizados\logo color5.png"
   inkscape:export-xdpi="90"
   inkscape:export-ydpi="90">
  <defs
     id="defs4" />
  <sodipodi:namedview
     id="base"
     pagecolor="#ffffff"
     bordercolor="#666666"
     borderopacity="1.0"
     inkscape:pageopacity="0.0"
     inkscape:pageshadow="2"
     inkscape:zoom="0.7"
     inkscape:cx="711.54993"
     inkscape:cy="450.40175"
     inkscape:document-units="px"
     inkscape:current-layer="g3955"
     showgrid="false"
     showguides="true"
     inkscape:guide-bbox="true"
     inkscape:window-width="1366"
     inkscape:window-height="705"
     inkscape:window-x="-8"
     inkscape:window-y="-8"
     inkscape:window-maximized="1">
    <sodipodi:guide
       orientation="0,1"
       position="307.08637,156.57364"
       id="guide5282" />
  </sodipodi:namedview>
  <metadata
     id="metadata7">
    <rdf:RDF>
      <cc:Work
         rdf:about="">
        <dc:format>image/svg+xml</dc:format>
        <dc:type
           rdf:resource="http://purl.org/dc/dcmitype/StillImage" />
        <dc:title />
      </cc:Work>
    </rdf:RDF>
  </metadata>
  <g
     inkscape:label="Capa 1"
     inkscape:groupmode="layer"
     id="layer1"
     transform="translate(0,-308.2677)">
    <g
       transform="matrix(0.93154076,0,0,0.83142088,31.784679,46.067725)"
       id="g3955">
      <g
         id="g2991"
         transform="translate(6.1342305,-2.8729823e-7)">
        <text
           inkscape:transform-center-y="136.75709"
           inkscape:transform-center-x="534.6578"
           transform="matrix(1.1426409,0,0,1.1299714,-105.33802,283.77448)"
           sodipodi:linespacing="125%"
           id="text3803-1"
           y="653.32269"
           x="165.76814"
           style="font-size:176.86051941px;font-style:normal;font-variant:normal;font-weight:normal;font-stretch:normal;line-height:125%;letter-spacing:0px;word-spacing:0px;fill:#175fb0;fill-opacity:1;stroke:#131010;stroke-width:0;stroke-miterlimit:4;stroke-opacity:1;stroke-dasharray:none;display:inline;font-family:Kristen ITC;-inkscape-font-specification:Kristen ITC"
           xml:space="preserve"><tspan
             style="font-style:normal;font-variant:normal;font-weight:normal;font-stretch:normal;fill:#175fb0;fill-opacity:1;stroke:#131010;stroke-width:0;stroke-miterlimit:4;stroke-opacity:1;stroke-dasharray:none;font-family:Alien Encounters;-inkscape-font-specification:Alien Encounters"
             y="653.32269"
             x="165.76814"
             id="tspan3805-7"
             sodipodi:role="line">TUIFACE</tspan></text>
        <path
           sodipodi:nodetypes="aaaaaaaaaaa"
           inkscape:connector-curvature="0"
           id="path3779"
           d="m 446.79582,726.13941 c 14.20287,3.64432 30.05476,-9.10749 36.97571,-22.27171 27.22521,-51.78456 -43.8063,-135.86785 -5.39444,-178.79113 28.64077,-32.00461 94.61567,-32.63318 125.06181,-1.94471 41.78506,42.11764 -20.86056,129.44332 7.18075,182.91103 7.13047,13.59601 22.49202,30.92126 36.31343,26.21076 56.30042,-19.18787 75.63207,-116.53438 60.24341,-177.71204 -14.90768,-59.26547 -75.50137,-106.8378 -131.76682,-119.66971 -55.45832,-12.64783 -121.587,9.88797 -162.36285,51.30483 -28.54876,28.99757 -44.05709,77.33385 -39.10198,119.25978 5.45696,46.17292 27.23207,108.99743 72.85098,120.7029 z"
           style="fill:#ff482a;fill-opacity:1;stroke:#f7f112;stroke-width:0;stroke-linecap:butt;stroke-linejoin:miter;stroke-miterlimit:4;stroke-opacity:1;stroke-dasharray:none;display:inline" />
        <path
           inkscape:export-ydpi="90"
           inkscape:export-xdpi="90"
           sodipodi:nodetypes="ccssasccscscccc"
           inkscape:connector-curvature="0"
           id="path3783"
           d="m 749.37932,627.47393 c 24.09281,6.75456 38.28073,-5.26687 58.94174,-10.7818 0,0 20.53434,-2.83164 39.18061,3.32905 15.90981,5.25658 27.66385,23.37316 40.01752,20.20082 9.69042,-2.48845 24.73682,-15.45542 24.82993,-27.90623 0.10393,-13.89895 -23.37655,-23.77379 -27.24893,-31.56297 -10.83229,-21.78919 -43.42397,-37.00848 -48.08394,-33.78299 -12.76257,-8.03695 -36.46086,-48.639 -43.38796,-55.63639 -6.27256,-6.33621 17.57746,39.8375 8.43473,33.69993 -9.84613,-6.60983 -30.54694,-33.06936 -30.54694,-33.06936 0,0 8.16702,22.99768 12.26622,31.41195 3.98684,8.1836 14.45657,21.43752 14.45657,21.43752 l -17.83768,-2.87515 -38.77738,-22.28238 z"
           style="fill:#175fb0;fill-opacity:1;stroke:#060606;stroke-width:0;stroke-linecap:butt;stroke-linejoin:miter;stroke-miterlimit:4;stroke-opacity:1;stroke-dasharray:none;display:inline" />
        <path
           sodipodi:nodetypes="caaaaaaaacc"
           inkscape:connector-curvature="0"
           id="path3789"
           d="m 361.59215,513.57665 c 0,0 -56.87801,13.75056 -75.01065,35.75295 -56.64604,68.73503 -14.90549,197.95432 -74.80917,263.42416 -10.3824,11.34711 -27.62114,12.35944 -42.26909,14.71099 -24.66422,3.95954 -56.37345,-19.38373 -74.803897,-1.33562 -9.111725,8.9227 -10.815238,29.55294 -2.804559,39.62136 18.946956,23.81398 58.039726,7.29018 87.199426,7.54861 18.15984,0.16095 39.93957,8.10694 54.37018,-3.73786 75.96092,-62.34958 38.58423,-206.96981 92.89248,-291.48592 9.45688,-14.71708 38.44361,-22.61733 38.44361,-34.24271 z"
           style="font-size:medium;font-style:normal;font-variant:normal;font-weight:normal;font-stretch:normal;text-indent:0;text-align:start;text-decoration:none;line-height:normal;letter-spacing:normal;word-spacing:normal;text-transform:none;direction:ltr;block-progression:tb;writing-mode:lr-tb;text-anchor:start;baseline-shift:baseline;color:#000000;fill:#175fb0;fill-opacity:1;stroke:#0a0d12;stroke-width:0;stroke-miterlimit:4;stroke-opacity:1;stroke-dasharray:none;marker:none;visibility:visible;display:inline;overflow:visible;enable-background:accumulate;font-family:Sans;-inkscape-font-specification:Sans" />
        <path
           inkscape:export-ydpi="90"
           inkscape:export-xdpi="90"
           sodipodi:nodetypes="csssssscscsssssssssc"
           inkscape:connector-curvature="0"
           id="path3805"
           d="m 623.34893,876.15837 c -4.22893,-1.33952 -4.6454,-1.68345 -11.81292,-9.75539 -7.0171,-7.90253 -13.46395,-12.53466 -29.31779,-21.06509 -7.02805,-3.78158 -17.65958,-9.50092 -23.62561,-12.70963 -23.59772,-12.69161 -35.40762,-24.72749 -42.33231,-43.14235 -1.72198,-4.57923 -2.70278,-6.77913 -2.68366,-13.70766 0.0161,-5.84298 1.07868,-8.96447 2.03235,-11.37051 l 2.28094,-5.79072 27.15016,1.17226 c 15.44547,0.66688 29.53693,0.0557 29.6377,0.17595 0.1008,0.12027 -1.68201,5.54813 -2.30502,9.09198 -1.57982,8.98632 -0.97655,18.14317 1.59683,24.2379 4.16704,9.86911 11.36654,16.37876 31.12555,28.14312 5.69333,3.38977 13.28444,8.45155 16.86914,11.24839 3.58468,2.79685 11.87684,6.79835 16.48096,11.7506 1.37091,1.47458 8.46386,4.94768 13.51787,8.55564 3.06116,2.18528 2.58364,4.81901 4.69313,5.68387 4.62147,1.89471 13.69317,5.7875 13.61509,8.99082 -0.12189,5.00237 -7.7414,6.2157 -14.38919,9.23102 -6.2142,2.81866 -26.72478,1.09963 -32.53322,-0.7402 z"
           style="fill:#175fb0;fill-opacity:1;fill-rule:evenodd;stroke:#171010;stroke-width:0;stroke-linecap:square;stroke-miterlimit:4;stroke-opacity:1;stroke-dasharray:none;stroke-dashoffset:0" />
        <path
           inkscape:connector-curvature="0"
           id="path3807"
           d="m 519.6196,760.00299 c -1.44316,-0.19382 -2.51314,-0.63392 -2.37769,-0.97799 0.13544,-0.34408 2.00043,-4.43806 4.14442,-9.09775 3.75211,-8.15472 3.91151,-8.80086 4.2541,-17.24491 0.43735,-10.77901 -3.4882,-48.19629 -7.0415,-67.1178 -4.59938,-24.49192 -2.74708,-33.24357 9.82071,-46.40031 10.94422,-11.45709 23.41977,-14.67718 34.02246,-8.78156 5.52928,3.07455 13.42334,12.39597 16.74857,19.77697 3.90351,8.66464 4.39563,14.01539 3.18782,34.66157 -0.53892,9.21233 -1.00754,23.35973 -1.04137,31.43864 -0.12037,28.74166 -1.66375,46.23411 -5.27379,59.77232 l -1.22657,4.59979 -26.2966,-0.13829 c -14.46313,-0.076 -27.47738,-0.29685 -28.92056,-0.49068 l 0,0 z"
           style="fill:#ff482a;fill-opacity:1;fill-rule:evenodd;stroke:#f8f514;stroke-width:0;stroke-linecap:square;stroke-miterlimit:4;stroke-opacity:1;stroke-dasharray:none;stroke-dashoffset:0" />
      </g>
    </g>
  </g>
</svg>
